<svg xmlns="http://www.w3.org/2000/svg" xmlns:xlink="http://www.w3.org/1999/xlink" xmlns:lucid="lucid" width="917.61" height="364.71"><g transform="translate(-154.65610828223893 -90.28310186768749)" lucid:page-tab-id="0_0"><path d="M0 0h1870.87v1322.84H0z" fill="#fff"/><path d="M174.66 338.73a6 6 0 0 1 6-6h159.02a6 6 0 0 1 6 6v71.34a6 6 0 0 1-6 6H180.66a6 6 0 0 1-6-6z" fill="#fff" fill-opacity="0"/><path d="M197.7 332.73h11.35m11.36 0h11.37m11.36 0h11.36m11.35 0h11.36m11.37 0h11.36m11.36 0h11.34m11.36 0h5.68l.94.07.92.22.87.36.8.5.73.6.6.72.5.8.36.87.2.92.08.93v5.94m0 11.9v11.88m0 11.9v11.88m0 11.9v5.94l-.07.94-.2.92-.37.87-.5.8-.6.7-.72.62-.8.5-.86.35-.92.22-.94.07H334m-11.36 0H311.3m-11.37 0h-11.36m-11.36 0h-11.35m-11.36 0h-11.37m-11.36 0H220.4m-11.35 0H197.7m-11.36 0h-5.68l-.94-.08-.92-.23-.87-.36-.8-.48-.72-.6-.6-.73-.5-.8-.35-.88-.22-.92-.07-.93v-5.95m0-11.9v-11.88m0-11.9v-11.88m0-11.9v-5.93l.07-.94.22-.93.36-.87.5-.8.6-.72.73-.6.8-.5.87-.36.92-.22.94-.07h5.68" stroke="#ff8f8f" stroke-width="3" fill="none"/><path d="M366.3 220.77a6 6 0 0 1 6-6H655.8a6 6 0 0 1 6 6V429a6 6 0 0 1-6 6H372.3a6 6 0 0 1-6-6z" fill="#fff" fill-opacity="0"/><path d="M390 214.77h11.82m11.82 0h11.8m11.82 0h11.82m11.8 0h11.83m11.82 0h11.8m11.83 0h11.8m11.83 0h11.8m11.82 0h11.82m11.8 0h11.83m11.8 0h11.83m11.8 0h11.82m11.82 0h5.9l.94.07.92.22.87.36.8.5.72.6.6.72.5.8.36.88.22.9.07.95v5.78m0 11.57v11.57m0 11.56v11.57m0 11.56v11.56m0 11.57v11.57m0 11.57v11.57m0 11.56v11.57m0 11.57v11.57m0 11.58v11.56m0 11.57v5.8l-.07.94-.22.9-.36.88-.5.8-.6.72-.72.6-.8.5-.87.36-.92.22-.94.08h-5.9m-11.82 0h-11.8m-11.82 0h-11.82m-11.8 0h-11.83m-11.8 0H555.4m-11.8 0h-11.82m-11.82 0h-11.8m-11.83 0h-11.8m-11.82 0h-11.8m-11.82 0h-11.8m-11.83 0h-11.8m-11.83 0h-11.8m-11.82 0h-5.9l-.95-.08-.92-.22-.87-.36-.8-.5-.7-.6-.63-.72-.5-.8-.35-.87-.22-.9-.07-.95v-5.8m0-11.56v-11.56m0-11.57v-11.56m0-11.57V353.8m0-11.56v-11.57m0-11.57v-11.57m0-11.57V284.4m0-11.57v-11.57m0-11.57V238.1m0-11.57v-5.78l.06-.94.22-.9.36-.88.5-.8.6-.72.72-.6.8-.5.87-.37.92-.22.94-.07h5.9" stroke="#ff8f8f" stroke-width="3" fill="none"/><path d="M682.43 220.77a6 6 0 0 1 6-6H959.6a6 6 0 0 1 6 6V429a6 6 0 0 1-6 6H688.42a6 6 0 0 1-6-6z" fill="#fff" fill-opacity="0"/><path d="M706.92 214.77h12.32m12.33 0h12.32m12.32 0h12.32m12.33 0h12.32m12.32 0h12.33m12.32 0h12.33m12.32 0h12.33m12.32 0h12.33m12.32 0h12.33m12.32 0h12.33m12.32 0h6.17l.93.07.9.22.88.36.8.5.73.6.6.72.5.8.36.88.2.9.1.95v5.78m0 11.57v11.57m0 11.56v11.57m0 11.56v11.56m0 11.57v11.57m0 11.57v11.57m0 11.56v11.57m0 11.57v11.57m0 11.58v11.56m0 11.57v5.8l-.1.94-.2.9-.37.88-.5.8-.6.72-.72.6-.8.5-.86.36-.9.22-.95.08h-6.18m-12.32 0h-12.33m-12.32 0h-12.33m-12.32 0h-12.33m-12.32 0h-12.33m-12.32 0h-12.33m-12.32 0H805.5m-12.33 0h-12.33m-12.33 0h-12.32m-12.33 0h-12.33m-12.33 0h-12.32m-12.33 0h-6.17l-.94-.08-.93-.22-.87-.36-.8-.5-.7-.6-.63-.72-.5-.8-.35-.87-.22-.9-.07-.95v-5.8m0-11.56v-11.56m0-11.57v-11.56m0-11.57V353.8m0-11.56v-11.57m0-11.57v-11.57m0-11.57V284.4m0-11.57v-11.57m0-11.57V238.1m0-11.57v-5.78l.07-.94.22-.9.36-.88.5-.8.6-.72.72-.6.8-.5.87-.37.92-.22.93-.07h6.16" stroke="#ff8f8f" stroke-width="3" fill="none"/><path d="M381.6 338.73a6 6 0 0 1 6-6h128a6 6 0 0 1 6 6v71.34a6 6 0 0 1-6 6h-128a6 6 0 0 1-6-6z" stroke="#3a414a" fill="#c3f7c8"/><use xlink:href="#a" transform="matrix(1,0,0,1,386.5880470391174,337.7262964935931) translate(34.84567901234568 27.02777777777778)"/><use xlink:href="#b" transform="matrix(1,0,0,1,386.5880470391174,337.7262964935931) translate(27.469135802469133 53.69444444444445)"/><path d="M711.5 350.4a6 6 0 0 1 6-6h48a6 6 0 0 1 6 6v48a6 6 0 0 1-6 6h-48a6 6 0 0 1-6-6z" stroke="#3a414a" fill="#cfe4ff"/><use xlink:href="#c" transform="matrix(1,0,0,1,723.5105417225304,356.39634991741576) translate(1.3641975308641996 22.27777777777778)"/><path d="M481.6 254.43c0 16.57-13.44 30-30 30-16.58 0-30-13.43-30-30 0-16.56 13.42-30 30-30 16.56 0 30 13.44 30 30z" stroke="#3a414a" fill="#c3f7c8"/><use xlink:href="#d" transform="matrix(1,0,0,1,426.5880470391174,229.4336637313994) translate(14.537037037037038 30.27777777777778)"/><path d="M451.6 286.43v25.18" stroke="#54c45e" stroke-width="3" fill="none"/><path d="M451.58 284.93l1.5-.05v1.6h-3v-1.67z" stroke="#54c45e" stroke-width=".05" fill="#54c45e"/><path d="M451.6 327.37l-4.65-14.26h9.27z" stroke="#54c45e" stroke-width="3" fill="#54c45e"/><path d="M338.05 374.4H360.47" stroke="#54c45e" stroke-width="3" fill="none"/><path d="M338.1 375.9h-1.55v-3h1.54z" stroke="#54c45e" stroke-width=".05" fill="#54c45e"/><path d="M376.23 374.4l-14.26 4.63v-9.27z" stroke="#54c45e" stroke-width="3" fill="#54c45e"/><path d="M523.55 374.4H566" stroke="#ba23f6" stroke-width="3" fill="none"/><path d="M523.6 375.9h-1.5v-3h1.5z" stroke="#ba23f6" stroke-width=".05" fill="#ba23f6"/><path d="M581.76 374.4l-14.27 4.63v-9.27z" stroke="#ba23f6" stroke-width="3" fill="#ba23f6"/><path d="M240.92 372.73c0 16.57-13.43 30-30 30s-30-13.43-30-30 13.43-30 30-30 30 13.43 30 30z" stroke="#3a414a" fill="#fff"/><use xlink:href="#e" transform="matrix(1,0,0,1,185.92138037245155,347.7296832507494) translate(17.592592592592595 30.27777777777778)"/><path d="M276.05 350.4a6 6 0 0 1 6-6h48a6 6 0 0 1 6 6v48a6 6 0 0 1-6 6h-48a6 6 0 0 1-6-6z" stroke="#3a414a" fill="#c3f7c8"/><use xlink:href="#f" transform="matrix(1,0,0,1,288.0517793079678,356.39634991741593) translate(9.358024691358025 22.27777777777778)"/><path d="M241.92 372.73h17.25" stroke="#3a414a" fill="none"/><path d="M241.94 373.23h-.56l.04-.5-.02-.5h.53z" stroke="#3a414a" stroke-width=".05" fill="#3a414a"/><path d="M273.93 372.73l-14.26 4.63v-9.27z" stroke="#3a414a" fill="#3a414a"/><path d="M772.5 374.4h18.98" stroke="#3a414a" fill="none"/><path d="M772.52 374.9h-.5v-1h.5z" stroke="#3a414a" stroke-width=".05" fill="#3a414a"/><path d="M806.24 374.4l-14.26 4.63v-9.27z" stroke="#3a414a" fill="#3a414a"/><path d="M1052.27 372.73c0 16.57-13.43 30-30 30s-30-13.43-30-30 13.43-30 30-30 30 13.43 30 30z" stroke="#3a414a" fill="#fff"/><use xlink:href="#g" transform="matrix(1,0,0,1,997.2660390169981,347.72968325074925) translate(17.592592592592595 30.27777777777778)"/><path d="M808.36 338.73a6 6 0 0 1 6-6h128a6 6 0 0 1 6 6v71.34a6 6 0 0 1-6 6h-128a6 6 0 0 1-6-6z" stroke="#3a414a" fill-opacity="0"/><use xlink:href="#h" transform="matrix(1,0,0,1,813.3613960214142,337.7262964935931) translate(45.24691358024691 40.90277777777778)"/><path d="M949.36 374.4h26.08" stroke="#3a414a" fill="none"/><path d="M949.37 374.9h-.5v-1h.5z" stroke="#3a414a" stroke-width=".05" fill="#3a414a"/><path d="M990.2 374.4l-14.26 4.63v-9.27z" stroke="#3a414a" fill="#3a414a"/><path d="M908.36 254.43c0 16.57-13.43 30-30 30s-30-13.43-30-30c0-16.56 13.43-30 30-30s30 13.44 30 30z" stroke="#3a414a" fill="#fff"/><use xlink:href="#i" transform="matrix(1,0,0,1,853.3613960214142,229.43366373139924) translate(18.82716049382716 30.27777777777778)"/><path d="M878.36 285.43v30.4" stroke="#3a414a" fill="none"/><path d="M878.35 284.93h.5v.52h-1v-.56z" stroke="#3a414a" stroke-width=".05" fill="#3a414a"/><path d="M878.36 330.6l-4.63-14.26H883z" stroke="#3a414a" fill="#3a414a"/><path d="M216.62 116.28a6 6 0 0 1 6-6H375.6a6 6 0 0 1 6 6v77.42a6 6 0 0 1-6 6H222.6a6 6 0 0 1-6-6z" stroke="#3a414a" fill-opacity="0"/><use xlink:href="#j" transform="matrix(1,0,0,1,221.62362222893233,115.28310186768749) translate(11.20370370370371 17.77777777777778)"/><use xlink:href="#k" transform="matrix(1,0,0,1,221.62362222893233,115.28310186768749) translate(71.6358024691358 17.77777777777778)"/><use xlink:href="#l" transform="matrix(1,0,0,1,221.62362222893233,115.28310186768749) translate(90.77160493827161 17.77777777777778)"/><use xlink:href="#m" transform="matrix(1,0,0,1,221.62362222893233,115.28310186768749) translate(10.000000000000014 44.44444444444444)"/><use xlink:href="#k" transform="matrix(1,0,0,1,221.62362222893233,115.28310186768749) translate(77.8395061728395 44.44444444444444)"/><use xlink:href="#n" transform="matrix(1,0,0,1,221.62362222893233,115.28310186768749) translate(96.9753086419753 44.44444444444444)"/><use xlink:href="#o" transform="matrix(1,0,0,1,221.62362222893233,115.28310186768749) translate(2.6234567901234698 71.11111111111111)"/><use xlink:href="#k" transform="matrix(1,0,0,1,221.62362222893233,115.28310186768749) translate(72.87037037037038 71.11111111111111)"/><use xlink:href="#p" transform="matrix(1,0,0,1,221.62362222893233,115.28310186768749) translate(92.00617283950618 71.11111111111111)"/><use xlink:href="#q" transform="matrix(1,0,0,1,221.62362222893233,115.28310186768749) translate(77.5 97.77777777777777)"/><path d="M586.55 350.4a6 6 0 0 1 6-6h48a6 6 0 0 1 6 6v48a6 6 0 0 1-6 6h-48a6 6 0 0 1-6-6z" stroke="#3a414a" fill="#c3f7c8"/><g><use xlink:href="#r" transform="matrix(1,0,0,1,598.5492943808239,356.396349917416) translate(1.3641975308641996 22.27777777777778)"/></g><path d="M648.55 374.4h41.84" stroke="#54c45e" stroke-width="3" fill="none"/><path d="M648.6 375.9h-1.55v-3h1.54z" stroke="#54c45e" stroke-width=".05" fill="#54c45e"/><path d="M706.16 374.4l-14.27 4.63v-9.27z" stroke="#54c45e" stroke-width="3" fill="#54c45e"/><defs><path fill="#3a414a" d="M240 0l2-218c-23 76-54 145-80 218h-23L58-218 59 0H30v-248h44l77 211c21-75 51-140 76-211h43V0h-30" id="s"/><path fill="#3a414a" d="M141-36C126-15 110 5 73 4 37 3 15-17 15-53c-1-64 63-63 125-63 3-35-9-54-41-54-24 1-41 7-42 31l-33-3c5-37 33-52 76-52 45 0 72 20 72 64v82c-1 20 7 32 28 27v20c-31 9-61-2-59-35zM48-53c0 20 12 33 32 33 41-3 63-29 60-74-43 2-92-5-92 41" id="t"/><path fill="#3a414a" d="M59-47c-2 24 18 29 38 22v24C64 9 27 4 27-40v-127H5v-23h24l9-43h21v43h35v23H59v120" id="u"/><path fill="#3a414a" d="M114-163C36-179 61-72 57 0H25l-1-190h30c1 12-1 29 2 39 6-27 23-49 58-41v29" id="v"/><path fill="#3a414a" d="M24-231v-30h32v30H24zM24 0v-190h32V0H24" id="w"/><path fill="#3a414a" d="M141 0L90-78 38 0H4l68-98-65-92h35l48 74 47-74h35l-64 92 68 98h-35" id="x"/><g id="a"><use transform="matrix(0.06172839506172839,0,0,0.06172839506172839,0,0)" xlink:href="#s"/><use transform="matrix(0.06172839506172839,0,0,0.06172839506172839,18.456790123456788,0)" xlink:href="#t"/><use transform="matrix(0.06172839506172839,0,0,0.06172839506172839,30.80246913580247,0)" xlink:href="#u"/><use transform="matrix(0.06172839506172839,0,0,0.06172839506172839,36.97530864197531,0)" xlink:href="#v"/><use transform="matrix(0.06172839506172839,0,0,0.06172839506172839,44.32098765432099,0)" xlink:href="#w"/><use transform="matrix(0.06172839506172839,0,0,0.06172839506172839,49.19753086419753,0)" xlink:href="#x"/></g><path fill="#3a414a" d="M84 4C-5 8 30-112 23-190h32v120c0 31 7 50 39 49 72-2 45-101 50-169h31l1 190h-30c-1-10 1-25-2-33-11 22-28 36-60 37" id="y"/><path fill="#3a414a" d="M24 0v-261h32V0H24" id="z"/><path fill="#3a414a" d="M115-194c55 1 70 41 70 98S169 2 115 4C84 4 66-9 55-30l1 105H24l-1-265h31l2 30c10-21 28-34 59-34zm-8 174c40 0 45-34 45-75s-6-73-45-74c-42 0-51 32-51 76 0 43 10 73 51 73" id="A"/><path fill="#3a414a" d="M179-190L93 31C79 59 56 82 12 73V49c39 6 53-20 64-50L1-190h34L92-34l54-156h33" id="B"/><g id="b"><use transform="matrix(0.06172839506172839,0,0,0.06172839506172839,0,0)" xlink:href="#s"/><use transform="matrix(0.06172839506172839,0,0,0.06172839506172839,18.456790123456788,0)" xlink:href="#y"/><use transform="matrix(0.06172839506172839,0,0,0.06172839506172839,30.80246913580247,0)" xlink:href="#z"/><use transform="matrix(0.06172839506172839,0,0,0.06172839506172839,35.67901234567901,0)" xlink:href="#u"/><use transform="matrix(0.06172839506172839,0,0,0.06172839506172839,41.851851851851855,0)" xlink:href="#w"/><use transform="matrix(0.06172839506172839,0,0,0.06172839506172839,46.7283950617284,0)" xlink:href="#A"/><use transform="matrix(0.06172839506172839,0,0,0.06172839506172839,59.074074074074076,0)" xlink:href="#z"/><use transform="matrix(0.06172839506172839,0,0,0.06172839506172839,63.95061728395061,0)" xlink:href="#B"/></g><path fill="#3a414a" d="M30-248c118-7 216 8 213 122C240-48 200 0 122 0H30v-248zM63-27c89 8 146-16 146-99s-60-101-146-95v194" id="C"/><path fill="#3a414a" d="M140-251c81 0 123 46 123 126C263-53 228-8 163 1c7 30 30 48 69 40v23c-55 16-95-15-103-61C56-3 17-48 17-125c0-80 42-126 123-126zm0 227c63 0 89-41 89-101s-29-99-89-99c-61 0-89 39-89 99S79-25 140-24" id="D"/><g id="c"><use transform="matrix(0.06172839506172839,0,0,0.06172839506172839,0,0)" xlink:href="#C"/><use transform="matrix(0.06172839506172839,0,0,0.06172839506172839,15.987654320987653,0)" xlink:href="#D"/></g><path fill="#3a414a" d="M266 0h-40l-56-210L115 0H75L2-248h35L96-30l15-64 43-154h32l59 218 59-218h35" id="E"/><use transform="matrix(0.06172839506172839,0,0,0.06172839506172839,0,0)" xlink:href="#E" id="d"/><path fill="#3a414a" d="M195 0l-74-108L45 0H8l94-129-87-119h37l69 98 67-98h37l-84 118L233 0h-38" id="F"/><use transform="matrix(0.06172839506172839,0,0,0.06172839506172839,0,0)" xlink:href="#F" id="e"/><use transform="matrix(0.06172839506172839,0,0,0.06172839506172839,0,0)" xlink:href="#D" id="f"/><path fill="#3a414a" d="M137-103V0h-34v-103L8-248h37l75 118 75-118h37" id="G"/><use transform="matrix(0.06172839506172839,0,0,0.06172839506172839,0,0)" xlink:href="#G" id="g"/><path fill="#3a414a" d="M205 0l-28-72H64L36 0H1l101-248h38L239 0h-34zm-38-99l-47-123c-12 45-31 82-46 123h93" id="H"/><path fill="#3a414a" d="M85-194c31 0 48 13 60 33l-1-100h32l1 261h-30c-2-10 0-23-3-31C134-8 116 4 85 4 32 4 16-35 15-94c0-66 23-100 70-100zm9 24c-40 0-46 34-46 75 0 40 6 74 45 74 42 0 51-32 51-76 0-42-9-74-50-73" id="I"/><g id="h"><use transform="matrix(0.06172839506172839,0,0,0.06172839506172839,0,0)" xlink:href="#H"/><use transform="matrix(0.06172839506172839,0,0,0.06172839506172839,14.814814814814813,0)" xlink:href="#I"/><use transform="matrix(0.06172839506172839,0,0,0.06172839506172839,27.160493827160494,0)" xlink:href="#I"/></g><path fill="#3a414a" d="M115-194c53 0 69 39 70 98 0 66-23 100-70 100C84 3 66-7 56-30L54 0H23l1-261h32v101c10-23 28-34 59-34zm-8 174c40 0 45-34 45-75 0-40-5-75-45-74-42 0-51 32-51 76 0 43 10 73 51 73" id="J"/><use transform="matrix(0.06172839506172839,0,0,0.06172839506172839,0,0)" xlink:href="#J" id="i"/><path fill="#3a414a" d="M160-131c35 5 61 23 61 61C221 17 115-2 30 0v-248c76 3 177-17 177 60 0 33-19 50-47 57zm-97-11c50-1 110 9 110-42 0-47-63-36-110-37v79zm0 115c55-2 124 14 124-45 0-56-70-42-124-44v89" id="K"/><path fill="#3a414a" d="M96-169c-40 0-48 33-48 73s9 75 48 75c24 0 41-14 43-38l32 2c-6 37-31 61-74 61-59 0-76-41-82-99-10-93 101-131 147-64 4 7 5 14 7 22l-32 3c-4-21-16-35-41-35" id="L"/><path fill="#3a414a" d="M143 0L79-87 56-68V0H24v-261h32v163l83-92h37l-77 82L181 0h-38" id="M"/><g id="j"><use transform="matrix(0.06172839506172839,0,0,0.06172839506172839,0,0)" xlink:href="#K"/><use transform="matrix(0.06172839506172839,0,0,0.06172839506172839,14.814814814814813,0)" xlink:href="#z"/><use transform="matrix(0.06172839506172839,0,0,0.06172839506172839,19.691358024691354,0)" xlink:href="#t"/><use transform="matrix(0.06172839506172839,0,0,0.06172839506172839,32.03703703703703,0)" xlink:href="#L"/><use transform="matrix(0.06172839506172839,0,0,0.06172839506172839,43.14814814814814,0)" xlink:href="#M"/></g><path fill="#3a414a" d="M18-150v-26h174v26H18zm0 90v-26h174v26H18" id="N"/><use transform="matrix(0.06172839506172839,0,0,0.06172839506172839,0,0)" xlink:href="#N" id="k"/><path fill="#3a414a" d="M63-220v92h138v28H63V0H30v-248h175v28H63" id="O"/><path fill="#3a414a" d="M30-248c87 1 191-15 191 75 0 78-77 80-158 76V0H30v-248zm33 125c57 0 124 11 124-50 0-59-68-47-124-48v98" id="P"/><path fill="#3a414a" d="M27 0v-27h64v-190l-56 39v-29l58-41h29v221h61V0H27" id="Q"/><path fill="#3a414a" d="M110-160c48 1 74 30 74 79 0 53-28 85-80 85-65 0-83-55-86-122-5-90 50-162 133-122 14 7 22 21 27 39l-31 6c-5-40-67-38-82-6-9 19-15 44-15 74 11-20 30-34 60-33zm-7 138c34 0 49-23 49-58s-16-56-50-56c-29 0-50 16-49 49 1 36 15 65 50 65" id="R"/><g id="l"><use transform="matrix(0.06172839506172839,0,0,0.06172839506172839,0,0)" xlink:href="#O"/><use transform="matrix(0.06172839506172839,0,0,0.06172839506172839,13.518518518518517,0)" xlink:href="#P"/><use transform="matrix(0.06172839506172839,0,0,0.06172839506172839,28.33333333333333,0)" xlink:href="#Q"/><use transform="matrix(0.06172839506172839,0,0,0.06172839506172839,40.679012345679006,0)" xlink:href="#R"/></g><path fill="#54c45e" d="M143 4C61 4 22-44 18-125c-5-107 100-154 193-111 17 8 29 25 37 43l-32 9c-13-25-37-40-76-40-61 0-88 39-88 99 0 61 29 100 91 101 35 0 62-11 79-27v-45h-74v-28h105v86C228-13 192 4 143 4" id="S"/><path fill="#54c45e" d="M114-163C36-179 61-72 57 0H25l-1-190h30c1 12-1 29 2 39 6-27 23-49 58-41v29" id="T"/><path fill="#54c45e" d="M100-194c63 0 86 42 84 106H49c0 40 14 67 53 68 26 1 43-12 49-29l28 8c-11 28-37 45-77 45C44 4 14-33 15-96c1-61 26-98 85-98zm52 81c6-60-76-77-97-28-3 7-6 17-6 28h103" id="U"/><path fill="#54c45e" d="M117-194c89-4 53 116 60 194h-32v-121c0-31-8-49-39-48C34-167 62-67 57 0H25l-1-190h30c1 10-1 24 2 32 11-22 29-35 61-36" id="V"/><g id="m"><use transform="matrix(0.06172839506172839,0,0,0.06172839506172839,0,0)" xlink:href="#S"/><use transform="matrix(0.06172839506172839,0,0,0.06172839506172839,17.28395061728395,0)" xlink:href="#T"/><use transform="matrix(0.06172839506172839,0,0,0.06172839506172839,24.629629629629626,0)" xlink:href="#U"/><use transform="matrix(0.06172839506172839,0,0,0.06172839506172839,36.9753086419753,0)" xlink:href="#U"/><use transform="matrix(0.06172839506172839,0,0,0.06172839506172839,49.32098765432098,0)" xlink:href="#V"/></g><path fill="#3a414a" d="M33 0v-248h34V0H33" id="W"/><path fill="#3a414a" d="M190 0L58-211 59 0H30v-248h39L202-35l-2-213h31V0h-41" id="X"/><path fill="#3a414a" d="M127-220V0H93v-220H8v-28h204v28h-85" id="Y"/><path fill="#3a414a" d="M134-131c28 9 52 24 51 62-1 50-34 73-85 73S17-19 16-69c0-36 21-54 49-61-75-25-45-126 34-121 46 3 78 18 79 63 0 33-17 51-44 57zm-34-11c31 1 46-15 46-44 0-28-17-43-47-42-29 0-46 13-45 42 1 28 16 44 46 44zm1 122c35 0 51-18 51-52 0-30-18-46-53-46-33 0-51 17-51 47 0 34 19 51 53 51" id="Z"/><g id="n"><use transform="matrix(0.06172839506172839,0,0,0.06172839506172839,0,0)" xlink:href="#W"/><use transform="matrix(0.06172839506172839,0,0,0.06172839506172839,6.172839506172839,0)" xlink:href="#X"/><use transform="matrix(0.06172839506172839,0,0,0.06172839506172839,22.160493827160494,0)" xlink:href="#Y"/><use transform="matrix(0.06172839506172839,0,0,0.06172839506172839,35.67901234567901,0)" xlink:href="#Z"/></g><path fill="#d916a8" d="M30-248c87 1 191-15 191 75 0 78-77 80-158 76V0H30v-248zm33 125c57 0 124 11 124-50 0-59-68-47-124-48v98" id="aa"/><path fill="#d916a8" d="M84 4C-5 8 30-112 23-190h32v120c0 31 7 50 39 49 72-2 45-101 50-169h31l1 190h-30c-1-10 1-25-2-33-11 22-28 36-60 37" id="ab"/><path fill="#d916a8" d="M114-163C36-179 61-72 57 0H25l-1-190h30c1 12-1 29 2 39 6-27 23-49 58-41v29" id="ac"/><path fill="#d916a8" d="M115-194c55 1 70 41 70 98S169 2 115 4C84 4 66-9 55-30l1 105H24l-1-265h31l2 30c10-21 28-34 59-34zm-8 174c40 0 45-34 45-75s-6-73-45-74c-42 0-51 32-51 76 0 43 10 73 51 73" id="ad"/><path fill="#d916a8" d="M24 0v-261h32V0H24" id="ae"/><path fill="#d916a8" d="M100-194c63 0 86 42 84 106H49c0 40 14 67 53 68 26 1 43-12 49-29l28 8c-11 28-37 45-77 45C44 4 14-33 15-96c1-61 26-98 85-98zm52 81c6-60-76-77-97-28-3 7-6 17-6 28h103" id="af"/><g id="o"><use transform="matrix(0.06172839506172839,0,0,0.06172839506172839,0,0)" xlink:href="#aa"/><use transform="matrix(0.06172839506172839,0,0,0.06172839506172839,14.814814814814813,0)" xlink:href="#ab"/><use transform="matrix(0.06172839506172839,0,0,0.06172839506172839,27.160493827160494,0)" xlink:href="#ac"/><use transform="matrix(0.06172839506172839,0,0,0.06172839506172839,34.50617283950617,0)" xlink:href="#ad"/><use transform="matrix(0.06172839506172839,0,0,0.06172839506172839,46.85185185185185,0)" xlink:href="#ae"/><use transform="matrix(0.06172839506172839,0,0,0.06172839506172839,51.72839506172839,0)" xlink:href="#af"/></g><path fill="#3a414a" d="M126-127c33 6 58 20 58 59 0 88-139 92-164 29-3-8-5-16-6-25l32-3c6 27 21 44 54 44 32 0 52-15 52-46 0-38-36-46-79-43v-28c39 1 72-4 72-42 0-27-17-43-46-43-28 0-47 15-49 41l-32-3c6-42 35-63 81-64 48-1 79 21 79 65 0 36-21 52-52 59" id="ag"/><path fill="#3a414a" d="M101-251c82-7 93 87 43 132L82-64C71-53 59-42 53-27h129V0H18c2-99 128-94 128-182 0-28-16-43-45-43s-46 15-49 41l-32-3c6-41 34-60 81-64" id="ah"/><g id="p"><use transform="matrix(0.06172839506172839,0,0,0.06172839506172839,0,0)" xlink:href="#W"/><use transform="matrix(0.06172839506172839,0,0,0.06172839506172839,6.172839506172839,0)" xlink:href="#X"/><use transform="matrix(0.06172839506172839,0,0,0.06172839506172839,22.160493827160494,0)" xlink:href="#Y"/><use transform="matrix(0.06172839506172839,0,0,0.06172839506172839,35.67901234567901,0)" xlink:href="#ag"/><use transform="matrix(0.06172839506172839,0,0,0.06172839506172839,48.02469135802469,0)" xlink:href="#ah"/></g><path fill="#3a414a" d="M233-177c-1 41-23 64-60 70L243 0h-38l-65-103H63V0H30v-248c88 3 205-21 203 71zM63-129c60-2 137 13 137-47 0-61-80-42-137-45v92" id="ai"/><g id="r"><use transform="matrix(0.06172839506172839,0,0,0.06172839506172839,0,0)" xlink:href="#ai"/><use transform="matrix(0.06172839506172839,0,0,0.06172839506172839,15.987654320987653,0)" xlink:href="#D"/></g></defs></g></svg>