<svg xmlns="http://www.w3.org/2000/svg" xmlns:lucid="lucid" width="1335.92" height="1121.51"><g lucid:page-tab-id="0_0"><path d="M-182.04-101.33h1870.87V1221.5H-182.04z" fill="#fff"/><path d="M145.95 623.1h400v400h-400z" stroke="#3a414a" fill="#edf5ff"/><path d="M246.45 623.35a.25.25 0 0 1 .25.25v399a.25.25 0 0 1-.25.25.25.25 0 0 1-.25-.25v-399a.25.25 0 0 1 .25-.25zM346.45 623.35a.25.25 0 0 1 .25.25v399a.25.25 0 0 1-.25.25.25.25 0 0 1-.25-.25v-399a.25.25 0 0 1 .25-.25zM446.45 623.35a.25.25 0 0 1 .25.25v399a.25.25 0 0 1-.25.25.25.25 0 0 1-.25-.25v-399a.25.25 0 0 1 .25-.25z" stroke="#3a414a" stroke-width=".5" fill="none"/><path d="M146.7 723.6a.25.25 0 0 1 .25-.25h399a.25.25 0 0 1 .25.25.25.25 0 0 1-.25.25h-399a.25.25 0 0 1-.25-.25zM146.2 823.6a.25.25 0 0 1 .25-.25h399a.25.25 0 0 1 .25.25.25.25 0 0 1-.25.25h-399a.25.25 0 0 1-.25-.25zM146.7 923.6a.25.25 0 0 1 .25-.25h399a.25.25 0 0 1 .25.25.25.25 0 0 1-.25.25h-399a.25.25 0 0 1-.25-.25z" stroke="#3a414a" stroke-width=".5" fill="none"/><path d="M645.95 123.1h400v400h-400z" stroke="#3a414a" fill="#edf5ff"/><path d="M746.45 123.35a.25.25 0 0 1 .25.25v399a.25.25 0 0 1-.25.25.25.25 0 0 1-.25-.25v-399a.25.25 0 0 1 .25-.25zM846.45 123.35a.25.25 0 0 1 .25.25v399a.25.25 0 0 1-.25.25.25.25 0 0 1-.25-.25v-399a.25.25 0 0 1 .25-.25zM946.45 123.35a.25.25 0 0 1 .25.25v399a.25.25 0 0 1-.25.25.25.25 0 0 1-.25-.25v-399a.25.25 0 0 1 .25-.25z" stroke="#3a414a" stroke-width=".5" fill="none"/><path d="M646.7 223.6a.25.25 0 0 1 .25-.25h399a.25.25 0 0 1 .25.25.25.25 0 0 1-.25.25h-399a.25.25 0 0 1-.25-.25zM646.2 323.6a.25.25 0 0 1 .25-.25h399a.25.25 0 0 1 .25.25.25.25 0 0 1-.25.25h-399a.25.25 0 0 1-.25-.25zM646.7 423.6a.25.25 0 0 1 .25-.25h399a.25.25 0 0 1 .25.25.25.25 0 0 1-.25.25h-399a.25.25 0 0 1-.25-.25z" stroke="#3a414a" stroke-width=".5" fill="none"/><path d="M646.45 623.1h400v400h-400z" stroke="#3a414a" fill="#d7faf5"/><path d="M746.95 623.35a.25.25 0 0 1 .25.25v399a.25.25 0 0 1-.25.25.25.25 0 0 1-.25-.25v-399a.25.25 0 0 1 .25-.25zM846.95 623.35a.25.25 0 0 1 .25.25v399a.25.25 0 0 1-.25.25.25.25 0 0 1-.25-.25v-399a.25.25 0 0 1 .25-.25zM946.95 623.35a.25.25 0 0 1 .25.25v399a.25.25 0 0 1-.25.25.25.25 0 0 1-.25-.25v-399a.25.25 0 0 1 .25-.25z" stroke="#3a414a" stroke-width=".5" fill="none"/><path d="M647.2 723.6a.25.25 0 0 1 .25-.25h399a.25.25 0 0 1 .25.25.25.25 0 0 1-.25.25h-399a.25.25 0 0 1-.25-.25zM646.7 823.6a.25.25 0 0 1 .25-.25h399a.25.25 0 0 1 .25.25.25.25 0 0 1-.25.25h-399a.25.25 0 0 1-.25-.25zM647.2 923.6a.25.25 0 0 1 .25-.25h399a.25.25 0 0 1 .25.25.25.25 0 0 1-.25.25h-399a.25.25 0 0 1-.25-.25z" stroke="#3a414a" stroke-width=".5" fill="none"/><path d="M146.45 583.1h383.1M146.46 583.1h-.5" stroke="#3a414a" fill="none"/><path d="M544.33 583.1l-14.27 4.63v-9.27z" stroke="#3a414a" fill="#3a414a"/><path d="M545.45 583.1H162.33M545.43 583.1h.52" stroke="#3a414a" fill="none"/><path d="M147.56 583.1l14.27-4.64v9.27z" stroke="#3a414a" fill="#3a414a"/><path d="M85.95 623.6v383.12M85.95 623.6v-.5" stroke="#3a414a" fill="none"/><path d="M85.95 1021.48l-4.64-14.26h9.28z" stroke="#3a414a" fill="#3a414a"/><path d="M85.95 1022.6V639.48M85.95 1022.6v.5" stroke="#3a414a" fill="none"/><path d="M85.95 624.72l4.63 14.26H81.3z" stroke="#3a414a" fill="#3a414a"/><path d="M647.45 83.1h383.1M647.46 83.1h-.5" stroke="#3a414a" fill="none"/><path d="M1045.33 83.1l-14.27 4.63v-9.27z" stroke="#3a414a" fill="#3a414a"/><path d="M1046.45 83.1H663.33M1046.43 83.1h.52" stroke="#3a414a" fill="none"/><path d="M648.56 83.1l14.27-4.64v9.27z" stroke="#3a414a" fill="#3a414a"/><path d="M601.94 124.1v383.12M601.94 124.1v-.5" stroke="#3a414a" fill="none"/><path d="M601.94 521.98l-4.63-14.26h9.28z" stroke="#3a414a" fill="#3a414a"/><path d="M601.94 523.1V139.98M601.94 523.1v.5" stroke="#3a414a" fill="none"/><path d="M601.94 125.22l4.64 14.26h-9.27z" stroke="#3a414a" fill="#3a414a"/><path d="M522.6 303.77h46.95v39.66H522.6z" fill="#fff" fill-opacity="0"/><path d="M543.14 307.43l-5.8 23.3c-.05.13-.1.37-.1.48 0 .25.2.36.6.36.77 0 1.87-1.36 2.4-2.18l.44.47c-1.17 1.75-3.24 4.1-5.07 4.1-1.24 0-1.55-.9-1.55-1.6 0-.8.08-1.33.4-2.5h-.2c-2.9 3.62-5.23 4.1-6.67 4.1-2.85 0-3.43-2.9-3.43-4.96 0-4.03 4-12.72 10.02-12.72 2.22 0 3.12 1 3.16 1.95h.08l2.07-8.15c.04-.16.08-.3.08-.47 0-.5-.27-.77-1.3-.77-.34 0-.77.08-1.04.12l-.15-.6m-.3 11.87c0-1.84-.6-2.77-2.2-2.77-3.85 0-7 7.8-7 11.54 0 1.9 1.08 2.56 2.17 2.56 2.73 0 5.3-3.66 6.4-7.25.43-1.35.62-2.87.62-4.08M550.42 323.72c0 .72-.6 1.27-1.33 1.27-.8 0-1.33-.56-1.33-1.28 0-.7.52-1.38 1.32-1.38.7 0 1.32.7 1.32 1.38m-.83 3.45l-2.55 10.03c-.02.17-.02.28-.02.4 0 .18.16.26.35.26.6 0 .78-.33 1.77-1.4l.36.27c-.96 1.24-2.34 2.9-3.7 2.9-.76 0-1.1-.53-1.1-1.27 0-.33 0-.86 2.2-9.32.02-.06.04-.25.04-.33 0-.46-.22-.6-.85-.6-.26 0-.6.06-.78.1l-.1-.43M564.78 336.68l-.14.16c-.77.94-2.1 2.7-3.53 2.7-.87 0-1.12-.63-1.12-1.27 0-.35.1-.8.2-1.1l1.57-6.1c.05-.2.2-.76.2-1.15 0-.52-.18-1.05-.67-1.05-1.05 0-2.8 2.38-3.64 3.67-1 1.5-1.7 2.8-1.87 3.36l-.9 3.42h-2.14l2.62-10.3c0-.5-.08-.9-.83-.9-.27 0-.57.07-.77.1l-.05-.42 4.38-.63-1.4 5.2h.08c.14 0 1.5-1.92 1.54-2 1.1-1.4 2.76-3.2 4.4-3.2 1.23 0 1.56.8 1.56 1.7 0 .7-.17 1.38-.3 1.93l-1.63 6.37c-.03.06-.03.14-.03.28.03.16.1.38.4.38.67 0 1.34-1 1.72-1.46"/><path d="M1083.23 303.27h232.7v39.66h-232.7z" fill="#fff" fill-opacity="0"/><path d="M1083.86 307.16h10.1c3.9 0 6.7.98 8.46 2.46 1.28 1.1 1.94 2.7 1.94 4.64 0 2.06-.78 3.82-2.22 5.1-2.26 2.03-4.17 2.38-8.34 2.38-1.02 0-1.64-.04-2.7-.1v6.97c0 2.97.5 3.48 3.67 3.63v.74h-10.9v-.74c3.03-.23 3.26-.66 3.26-4v-16.74c0-2.9-.4-3.36-3.27-3.6v-.74m7.25 2.85v10.07c.9.08 1.6.1 2.4.1 4.28 0 6.6-2.2 6.6-5.72 0-4.3-2.32-5.85-7.63-5.85-1.13 0-1.36.35-1.36 1.4M1122.18 330.4v1.1c-1.17 1.47-2.18 1.86-3.5 1.86-1.45 0-2.3-.78-2.5-2.84h-.04c-2.07 2.34-3.98 2.84-5.65 2.84-2.43 0-4.1-1.48-4.1-4.05 0-2.02 1.2-3.54 2.72-4.55 1.17-.78 2.6-1.52 7.02-3.16v-2.12c0-2.42-1.3-3.5-3.04-3.5-1.56 0-2.73.85-2.73 1.9 0 .7.23.82.23 1.64 0 .74-.78 1.6-1.8 1.6-.8 0-1.67-.74-1.67-1.8 0-1 .63-2.26 2-3.1 1.08-.7 2.72-1.18 4.48-1.18 2.2 0 3.67.62 4.6 1.75.94 1.12 1.1 1.94 1.1 4.32v7.45c0 1.8.5 2.57 1.2 2.57.63 0 1.02-.2 1.68-.74m-6.04-2.38v-5.5c-2.42.86-4.02 1.68-5 2.58-.93.86-1.32 1.8-1.32 3 0 2.07 1.17 3 2.7 3 .77 0 1.6-.2 2.26-.62 1.13-.78 1.36-1.33 1.36-2.46M1128.54 315.12v3.58c1.95-2.8 3.04-3.66 4.68-3.66 1.32 0 2.14.78 2.14 2.06 0 1.1-.58 1.76-1.52 1.76-.5 0-.93-.2-1.56-.78-.43-.4-.78-.6-1-.6-1.1 0-2.74 1.96-2.74 3.2v8.78c0 2.23.66 2.8 3.3 2.93v.57h-9.34v-.58c2.5-.48 2.76-.75 2.76-2.7v-9.75c0-1.72-.35-2.34-1.32-2.34-.47 0-.82.05-1.37.17v-.63c2.3-.74 3.7-1.28 5.77-2.1M1152.52 330.4v1.1c-1.17 1.47-2.18 1.86-3.5 1.86-1.45 0-2.3-.78-2.5-2.84h-.04c-2.07 2.34-3.98 2.84-5.66 2.84-2.42 0-4.1-1.48-4.1-4.05 0-2.02 1.22-3.54 2.74-4.55 1.17-.78 2.6-1.52 7.02-3.16v-2.12c0-2.42-1.3-3.5-3.05-3.5-1.56 0-2.72.85-2.72 1.9 0 .7.24.82.24 1.64 0 .74-.78 1.6-1.8 1.6-.8 0-1.67-.74-1.67-1.8 0-1 .62-2.26 2-3.1 1.08-.7 2.72-1.18 4.47-1.18 2.18 0 3.67.62 4.6 1.75.94 1.12 1.1 1.94 1.1 4.32v7.45c0 1.8.5 2.57 1.2 2.57.63 0 1.02-.2 1.68-.74m-6.04-2.38v-5.5c-2.42.86-4.02 1.68-5 2.58-.93.86-1.32 1.8-1.32 3 0 2.07 1.17 3 2.7 3 .77 0 1.6-.2 2.25-.62 1.14-.78 1.38-1.33 1.38-2.46M1182.86 332.97h-8.5v-.58c2.18-.25 2.53-.67 2.53-2.94v-8.03c0-3.08-.8-4.37-3-4.37-1.85 0-3.02.7-4.2 2.38v9.83c0 2.53.6 3.08 2.82 3.12v.57h-8.73v-.58c2.2-.17 2.64-.4 2.64-2.78v-8.23c0-2.7-.86-4.34-2.53-4.34-1.44 0-3.35.75-4.13 1.68-.27.3-.5.6-.5.66v10.84c0 1.68.58 2.07 2.65 2.15v.57h-8.66v-.58c2.18-.05 2.73-.6 2.73-2.86v-9.67c0-1.9-.36-2.57-1.37-2.57-.43 0-.75.04-1.25.15v-.66c2.14-.6 3.43-1.02 5.42-1.76l.3.1v2.9h.1c2.56-2.65 4.2-3 5.95-3 2.1 0 3.43 1.05 4.14 3.27 2.1-2.25 4.08-3.26 6.34-3.26 3.16 0 4.52 2.4 4.52 7.02v7.9c0 1.77.5 2.27 1.68 2.35l1.02.1v.57M1198.88 326.58l.62.27c-1.52 4.25-4.25 6.5-8.14 6.5-4.6 0-7.4-3.46-7.4-8.84 0-5.5 3.15-9.46 8.06-9.46 2.42 0 4.17.93 5.42 2.7.78 1.08 1.17 2.33 1.32 4.43h-12c.2 2.97.38 4.5 1.8 6.36 1.08 1.44 2.52 2.14 4.32 2.14 2.6 0 4.1-1.2 6-4.1m-12.05-5.64h7.96c-.44-3.16-1.26-4.5-3.83-4.5-2.2 0-3.7 1.57-4.14 4.5M1210.7 329.97l.5.43c-1.28 2.03-2.77 2.96-4.72 2.96-2.26 0-3.43-1.67-3.43-4.95V316.7H1201c-.13-.08-.17-.16-.17-.28 0-.23.23-.47.66-.74 1-.58 2.3-2.03 3.78-4.17.23-.36.54-.7.78-1.1.2 0 .27.1.27.5v4.53h3.94v1.25h-3.94v11.15c0 2.5.58 3.5 2.03 3.5.85 0 1.48-.35 2.34-1.36M1227.07 326.58l.63.27c-1.53 4.25-4.25 6.5-8.15 6.5-4.6 0-7.4-3.46-7.4-8.84 0-5.5 3.15-9.46 8.06-9.46 2.43 0 4.18.93 5.43 2.7.78 1.08 1.17 2.33 1.32 4.43h-12c.2 2.97.4 4.5 1.8 6.36 1.08 1.44 2.52 2.14 4.32 2.14 2.6 0 4.1-1.2 6-4.1m-12.05-5.64h7.96c-.43-3.16-1.25-4.5-3.82-4.5-2.2 0-3.7 1.57-4.14 4.5M1234.75 315.12v3.58c1.95-2.8 3.04-3.66 4.68-3.66 1.33 0 2.15.78 2.15 2.06 0 1.1-.6 1.76-1.52 1.76-.5 0-.94-.2-1.56-.78-.43-.4-.78-.6-1.02-.6-1.1 0-2.73 1.96-2.73 3.2v8.78c0 2.23.67 2.8 3.32 2.93v.57h-9.36v-.58c2.5-.48 2.78-.75 2.78-2.7v-9.75c0-1.72-.35-2.34-1.33-2.34-.47 0-.82.05-1.36.17v-.63c2.3-.74 3.7-1.28 5.76-2.1M1247.58 321.24l4.06 2.45c2.5 1.5 3.43 2.57 3.43 4.8 0 2.6-2.5 4.86-5.46 4.86-.8 0-1.94-.04-2.84-.35-.93-.3-1.36-.34-1.8-.34-.46 0-.7.08-.93.47h-.5V327h.62c.82 3.8 2.26 5.5 4.95 5.5 2 0 3.24-1.28 3.24-2.88 0-1.2-.78-2.22-2.07-2.92l-2.1-1.17c-3.24-1.8-4.68-3.67-4.68-5.66 0-3.08 2.17-4.8 5.37-4.8.93 0 1.8.05 2.6.44.44.2.83.32 1.1.32.16 0 .3-.04.63-.4h.43l.2 5.3h-.6c-.9-3.5-2.06-4.8-4.4-4.8-1.68 0-2.93.83-2.93 2.67 0 .84.6 1.97 1.68 2.64M1259.94 338.47l-.4-.74c2.16-1.44 3.25-2.88 3.25-4.17 0-.27-.25-.5-.56-.5-.3 0-.7.15-1.13.15-1.43 0-2.25-.66-2.25-1.98 0-1.33.94-2.22 2.34-2.22 1.74 0 3.1 1.36 3.1 3.4 0 2.33-1.67 4.78-4.36 6.07M1315.9 307.5l-.16.64c-2.57.1-4.25 1.7-5.23 3l-17.06 22.46h-1.14v-17.24h-.42l-11.58 17.24h-1.14v-22.2c0-2.13-1.28-3.26-3.47-3.26h-.4l.16-.63h11.23l-.17.64h-.27c-1.52 0-2.96 0-2.96 2.76v14.7h.2l8.8-12.94v-2.38c0-1.2-.74-2.14-3.2-2.14h-.3l.15-.63h11.1l-.14.64h-.7c-2.4 0-2.76 1.44-2.76 2.8v15.4h.23l10.84-14.42c.67-.86 1.57-2.07 1.57-2.8 0-.63-.5-.98-2.1-.98h-.67l.16-.63h9.43"/><path d="M771.03 1059.4h151.83v42.1H771.03z" fill="#fff" fill-opacity="0"/><path d="M797.86 1076.18c0 8.04-5.26 13.46-12.75 13.46-7.55 0-12.74-5.46-12.74-13.57 0-7.92 5.15-13.34 12.75-13.34 7.65 0 12.76 5.73 12.76 13.45m-4.44-.23c0-4.44-1.33-8.1-3.55-9.98-1.4-1.17-2.97-1.83-4.8-1.83-2.1 0-4.05.85-5.57 2.6-1.68 1.92-2.7 5.7-2.7 9.4 0 4.65 1.14 8.16 3.52 10.34 1.32 1.2 3.04 1.75 4.83 1.75 1.95 0 3.67-.58 5.03-1.87 2.14-2.06 3.24-5.73 3.24-10.4M817.9 1087.14v.55c-2 .53-3.4.96-5.34 1.74l-.2-.1v-3.2h-.07c-1.92 2.6-4.14 3.34-5.6 3.34-3 0-4.74-2-4.74-5v-9.78c0-1.95-.55-2.5-2.42-2.6v-.56h5.7v12.6c0 1.8 1.24 3.08 2.76 3.08 1.13 0 2.3-.35 3.27-1.2.63-.56.9-.9.9-2.27v-9c0-2.07-.54-2.4-2.88-2.54v-.66h6.15v13.38c0 1.8.43 2.22 2.22 2.22h.23M829.1 1086.1l.5.42c-1.3 2.03-2.77 2.96-4.72 2.96-2.26 0-3.43-1.68-3.43-4.95v-11.74h-2.07c-.1-.1-.15-.16-.15-.28 0-.23.23-.47.66-.74 1-.6 2.3-2.03 3.77-4.17.24-.34.55-.7.78-1.1.2 0 .28.13.28.52v4.52h3.93v1.25h-3.93v11.14c0 2.5.58 3.5 2.02 3.5.86 0 1.5-.34 2.34-1.35M835.76 1071.23v3c1.72-2.14 3.43-3.08 5.62-3.08 3.78 0 6.5 3.48 6.5 8.3 0 5.66-3.54 10.03-8.18 10.03-1.64 0-2.54-.4-3.94-1.68v6.13c0 2.45.5 2.88 3.43 2.92v.7h-9.44v-.66c2.3-.24 2.73-.67 2.73-2.7v-18.25c0-1.83-.3-2.22-1.6-2.22-.36 0-.64 0-1 .04v-.63c2.16-.66 3.56-1.17 5.63-2m.23 4.93v9.6c0 1.16 2.22 2.56 4.06 2.56 2.8 0 4.7-2.92 4.7-7.2 0-4.57-1.9-7.54-4.78-7.54-1.8 0-3.98 1.4-3.98 2.57M867.8 1087.14v.55c-1.98.53-3.38.96-5.33 1.74l-.2-.1v-3.2h-.07c-1.9 2.6-4.14 3.34-5.58 3.34-3 0-4.76-2-4.76-5v-9.78c0-1.95-.54-2.5-2.4-2.6v-.56h5.68v12.6c0 1.8 1.25 3.08 2.77 3.08 1.14 0 2.3-.35 3.28-1.2.63-.56.9-.9.9-2.27v-9c0-2.07-.55-2.4-2.88-2.54v-.66h6.16v13.38c0 1.8.42 2.22 2.22 2.22h.23M878.96 1086.1l.5.42c-1.28 2.03-2.76 2.96-4.7 2.96-2.27 0-3.44-1.68-3.44-4.95v-11.74h-2.06c-.12-.1-.16-.16-.16-.28 0-.23.23-.47.66-.74 1.02-.6 2.3-2.03 3.78-4.17.24-.34.55-.7.78-1.1.2 0 .28.13.28.52v4.52h3.94v1.25h-3.94v11.14c0 2.5.58 3.5 2.02 3.5.86 0 1.5-.34 2.34-1.35M882.7 1094.6l-.38-.75c2.14-1.44 3.23-2.9 3.23-4.17 0-.28-.23-.5-.54-.5-.3 0-.7.15-1.12.15-1.45 0-2.26-.67-2.26-2 0-1.32.93-2.22 2.34-2.22 1.75 0 3.1 1.38 3.1 3.4 0 2.35-1.66 4.8-4.35 6.1M922.83 1063.63l-.16.62c-2.14.16-3.62 1.2-4.83 2.7l-8.15 9.98-2.3 9.12c-.1.35-.13.58-.13 1 0 .83.7 1.42 2.97 1.42h.78l-.16.62h-12.8l.17-.63h.66c3 0 3.77-1.1 4.08-2.42l2.38-9.6-3.47-9.23c-.67-1.76-1.8-2.97-4.8-2.97l.15-.62h11.66l-.15.62H908c-1.94 0-2.25.6-2.25 1.56 0 .36.2.8.27 1.07l2.93 8.07h.15l6.8-8.27c.46-.58.6-.9.6-1.32 0-.75-.8-1.1-3.07-1.1l.16-.62h9.23"/><path d="M270.03 1059.4H497.9v39.65H270.04z" fill="#fff" fill-opacity="0"/><path d="M297.6 1089.1h-9.94v-.75c1.4 0 1.68-.08 2.14-.35.32-.16.55-.6.55-.94 0-.58-.27-1.63-.74-2.73l-1.6-3.66h-10.2l-1.8 4.44c-.2.52-.35 1.18-.35 1.65 0 1.2.86 1.6 2.73 1.6v.74h-7.76v-.75c2.26-.23 2.6-1.05 4.9-6.5l8.05-19.04h.77l9.6 21.96c1.1 2.54 1.63 3.36 3.66 3.6v.73m-10.14-10.03l-4.52-10.72-4.48 10.72h9M313.7 1083l.55.36c-1.25 2.42-2.03 3.55-3.2 4.48-1.32 1.1-2.8 1.64-4.48 1.64-4.33 0-7.4-3.63-7.4-8.66 0-3.23 1.16-5.92 3.27-7.68 1.56-1.28 3.43-2 5.26-2 3.28 0 6 1.85 6 4.03 0 .9-.8 1.64-1.83 1.64-.85 0-1.56-.65-1.87-1.78l-.23-.86c-.4-1.45-.9-1.87-2.3-1.87-3.16 0-5.3 2.72-5.3 6.77 0 4.48 2.45 7.6 6.04 7.6 2.23 0 3.63-.93 5.5-3.66M325.9 1086.1l.52.42c-1.3 2.03-2.77 2.96-4.72 2.96-2.26 0-3.43-1.68-3.43-4.95v-11.74h-2.07c-.12-.1-.15-.16-.15-.28 0-.23.23-.47.66-.74 1.02-.6 2.3-2.03 3.8-4.17.22-.34.54-.7.77-1.1.2 0 .27.13.27.52v4.52h3.94v1.25h-3.94v11.14c0 2.5.6 3.5 2.03 3.5.86 0 1.48-.34 2.34-1.35M333.4 1064.45c0 1.13-.86 2-2.03 2-1.1 0-1.95-.87-1.95-2 0-1.1.9-2 2-2 1.12 0 1.98.9 1.98 2m2.84 24.64H327v-.6c2.7-.15 3.08-.5 3.08-3.46v-8.86c0-1.83-.3-2.45-1.28-2.45-.36 0-.94 0-1.64.2v-.63l6.04-2.15.16.16v13.7c0 2.88.3 3.3 2.88 3.5v.6M355.86 1071.54v.6c-1.17.1-1.5.42-2.54 3.03l-5 12.52c-.57 1.43-.85 1.94-1.08 1.94-.24 0-.43-.3-.7-1.02-.12-.2-.16-.46-.32-.82l-4.67-11.2c-1.68-4-2.07-4.4-3.55-4.47v-.6h7.64v.6c-1.33.12-1.8.4-1.8 1.05 0 .4.12.9.36 1.48l3.97 10 3.86-10.1c.16-.4.24-.8.24-1.18 0-.74-.6-1.13-1.83-1.25v-.6h5.42M374 1086.52v1.1c-1.18 1.47-2.2 1.86-3.52 1.86-1.45 0-2.3-.78-2.5-2.85h-.04c-2.06 2.34-3.97 2.85-5.65 2.85-2.43 0-4.1-1.48-4.1-4.05 0-2.03 1.2-3.55 2.72-4.57 1.17-.78 2.62-1.52 7.02-3.15v-2.1c0-2.42-1.28-3.5-3.04-3.5-1.56 0-2.73.85-2.73 1.9 0 .7.24.82.24 1.64 0 .74-.77 1.6-1.8 1.6-.8 0-1.66-.74-1.66-1.8 0-1 .62-2.26 1.98-3.12 1.1-.7 2.73-1.17 4.5-1.17 2.17 0 3.65.63 4.6 1.76.93 1.14 1.08 1.96 1.08 4.34v7.45c0 1.78.5 2.56 1.2 2.56.63 0 1.02-.2 1.7-.74m-6.06-2.38v-5.5c-2.4.86-4 1.68-5 2.57-.92.87-1.3 1.8-1.3 3.02 0 2.06 1.16 3 2.68 3 .78 0 1.6-.2 2.26-.62 1.13-.78 1.36-1.33 1.36-2.46M384.48 1086.1l.5.42c-1.28 2.03-2.77 2.96-4.72 2.96-2.26 0-3.43-1.68-3.43-4.95v-11.74h-2.06c-.12-.1-.16-.16-.16-.28 0-.23.24-.47.67-.74 1.02-.6 2.3-2.03 3.8-4.17.22-.34.53-.7.77-1.1.2 0 .27.13.27.52v4.52h3.95v1.25h-3.94v11.14c0 2.5.6 3.5 2.04 3.5.85 0 1.48-.34 2.34-1.35M391.96 1064.45c0 1.13-.86 2-2.03 2-1.1 0-1.95-.87-1.95-2 0-1.1.9-2 2-2 1.12 0 1.98.9 1.98 2m2.85 24.64h-9.23v-.6c2.7-.15 3.08-.5 3.08-3.46v-8.86c0-1.83-.3-2.45-1.3-2.45-.34 0-.92 0-1.63.2v-.63l6.05-2.15.15.16v13.7c0 2.88.32 3.3 2.9 3.5v.6M414.15 1080.08c0 5.42-3.5 9.4-8.77 9.4-4.72 0-8.43-3.86-8.43-9.28s3.5-9.05 8.78-9.05c4.75 0 8.42 3.55 8.42 8.93m-3.5 1.06c0-2.65-.7-5.35-1.96-6.94-.95-1.17-2.04-1.95-3.7-1.95-2.7 0-4.54 2.3-4.54 6.2 0 3.08.63 5.88 2.07 8 .86 1.24 2.1 1.94 3.5 1.94 2.9 0 4.6-2.74 4.6-7.26M434.23 1089.1h-8.1l.03-.6c1.95-.15 2.42-.93 2.42-3.5v-7.76c0-2.77-.94-3.94-2.85-3.94-1.3 0-2.22.47-4.02 2.22v10.76c0 1.52.56 2.07 2.55 2.23v.6h-8.23v-.6c2-.15 2.42-.77 2.42-3.07v-9.48c0-1.9-.28-2.53-1.37-2.53-.43 0-.86.04-1.13.15v-.66c2.15-.6 3.43-1.04 5.34-1.75l.32.12v3.04h.03c2.03-2.3 3.83-3.15 5.62-3.15 2.96 0 4.6 2.15 4.6 6v8.63c0 2.1.47 2.53 2.38 2.73v.6M440.94 1077.35l4.05 2.46c2.5 1.53 3.42 2.58 3.42 4.8 0 2.62-2.5 4.88-5.46 4.88-.82 0-1.95-.04-2.84-.35-.94-.3-1.37-.35-1.8-.35-.46 0-.7.08-.93.47h-.52v-6.12h.62c.82 3.78 2.27 5.5 4.96 5.5 1.98 0 3.23-1.3 3.23-2.9 0-1.2-.8-2.2-2.07-2.92l-2.1-1.16c-3.25-1.8-4.7-3.66-4.7-5.65 0-3.1 2.2-4.8 5.4-4.8.93 0 1.8.03 2.6.42.43.2.82.3 1.1.3.15 0 .3-.02.62-.38h.43l.2 5.3h-.6c-.9-3.5-2.06-4.8-4.4-4.8-1.67 0-2.92.83-2.92 2.66 0 .86.58 2 1.68 2.65M453.26 1094.6l-.4-.75c2.15-1.44 3.24-2.9 3.24-4.17 0-.28-.23-.5-.54-.5-.3 0-.7.15-1.13.15-1.45 0-2.26-.67-2.26-2 0-1.32.93-2.22 2.33-2.22 1.76 0 3.12 1.38 3.12 3.4 0 2.35-1.67 4.8-4.36 6.1M497.86 1063.63l-.15.62h-.15c-2.7 0-3.82 1.25-5.26 2.9l-7.3 8.3 3.74 10.37c.47 1.32 1.13 2.65 3.08 2.65h.55l-.16.62h-10.95l.16-.63h.44c1.48 0 2.6-.16 2.6-1.6 0-.3-.03-.63-.15-1.02l-2.7-7.56-7.05 7.83c-.35.4-.47.74-.47 1.1 0 .73.7 1.24 2.18 1.24h.86l-.16.62h-9.7l.15-.63c2.12-.28 4.03-1.45 5.47-3l8.1-8.97-3.3-9c-.43-1.22-1.1-3.25-3.98-3.25h-.36l.15-.62h11.03l-.16.62h-.74c-1.17 0-2.03.16-2.03 1.37 0 .3.08.66.24 1.1l2.34 6.97 6.4-7.2c.34-.4.58-.88.58-1.3-.04-.63-.5-.95-1.76-.95h-.35l.16-.62h8.66"/><path d="M322.96 523.1h46.97v39.66h-46.97z" fill="#fff" fill-opacity="0"/><path d="M343.5 526.76l-5.8 23.3c-.04.13-.08.36-.08.48 0 .24.2.35.6.35.77 0 1.86-1.37 2.4-2.2l.44.48c-1.17 1.75-3.24 4.1-5.07 4.1-1.26 0-1.57-.9-1.57-1.6 0-.8.07-1.33.4-2.5h-.2c-2.9 3.62-5.23 4.1-6.68 4.1-2.84 0-3.43-2.9-3.43-4.96 0-4.02 4.02-12.7 10.02-12.7 2.23 0 3.12 1 3.16 1.94h.08l2.07-8.15c.04-.15.07-.3.07-.46 0-.5-.27-.78-1.28-.78-.35 0-.78.08-1.05.12l-.17-.6m-.3 11.87c0-1.84-.6-2.77-2.2-2.77-3.86 0-7 7.8-7 11.54 0 1.9 1.08 2.57 2.17 2.57 2.73 0 5.3-3.67 6.4-7.26.42-1.36.62-2.9.62-4.1M350.8 543.05c0 .72-.6 1.27-1.33 1.27-.8 0-1.32-.55-1.32-1.27 0-.7.52-1.38 1.32-1.38.72 0 1.32.7 1.32 1.38m-.84 3.44l-2.53 10.03c-.03.16-.03.27-.03.38 0 .2.17.3.36.3.6 0 .77-.34 1.76-1.42l.36.28c-.96 1.24-2.34 2.9-3.7 2.9-.76 0-1.1-.53-1.1-1.27 0-.34 0-.87 2.18-9.33.03-.06.06-.25.06-.33 0-.47-.22-.6-.86-.6-.24 0-.58.05-.77.1l-.1-.44M365.15 556l-.13.17c-.78.94-2.1 2.7-3.53 2.7-.9 0-1.14-.63-1.14-1.27 0-.35.1-.8.2-1.1l1.56-6.1c.06-.2.2-.76.2-1.15 0-.52-.17-1.05-.67-1.05-1.04 0-2.78 2.37-3.64 3.67-.98 1.5-1.7 2.78-1.86 3.36l-.9 3.42h-2.13l2.63-10.3c0-.5-.1-.9-.83-.9-.28 0-.58.06-.77.1l-.06-.42 4.4-.64-1.42 5.2h.08c.14 0 1.5-1.93 1.55-2 1.1-1.4 2.75-3.2 4.4-3.2 1.22 0 1.55.8 1.55 1.7 0 .7-.17 1.38-.3 1.93l-1.63 6.37c-.03.06-.03.14-.03.28.03.16.1.38.42.38.65 0 1.3-1 1.7-1.46"/><path d="M20 803.77h35.15v34.72H20z" fill="#fff" fill-opacity="0"/><path d="M55.13 808l-.15.64h-.7c-2.93 0-3.83 1-4.18 2.45l-5.6 22.37h-.95l-10.68-20.5h-.24l-4.2 17.46c-.1.3-.12.63-.12 1.05 0 .78.67 1.37 2.97 1.37H32l-.15.62H21.48l.16-.62h.7c2.92 0 3.82-1.1 4.13-2.42l4.92-19.84c-.76-1.7-2.43-1.96-3.6-1.96h-.74l.15-.63H35l9.2 18.14h.2l3.8-15.05c.07-.36.15-.63.15-1.02 0-.78-.67-1.44-2.97-1.44h-.78l.16-.63h10.37"/><path d="M817.43 20h59.03v39.66h-59.03z" fill="#fff" fill-opacity="0"/><path d="M837.98 23.66l-5.8 23.3c-.05.13-.1.37-.1.48 0 .24.2.35.6.35.78 0 1.87-1.37 2.4-2.2l.44.48c-1.17 1.75-3.23 4.1-5.07 4.1-1.24 0-1.56-.9-1.56-1.6 0-.8.07-1.33.38-2.5h-.2c-2.88 3.62-5.22 4.1-6.66 4.1-2.84 0-3.43-2.9-3.43-4.96 0-4.02 4-12.7 10-12.7 2.23 0 3.13 1 3.17 1.94h.08l2.06-8.15c.05-.15.1-.3.1-.46 0-.5-.28-.78-1.3-.78-.35 0-.77.08-1.05.12l-.15-.6m-.3 11.87c0-1.84-.6-2.77-2.2-2.77-3.86 0-7.02 7.8-7.02 11.54 0 1.9 1.1 2.57 2.2 2.57 2.72 0 5.3-3.67 6.38-7.26.43-1.36.63-2.88.63-4.1M850.25 47.64c0 3.83-3.03 8.22-7.25 8.22-2.8 0-3.72-2.48-3.72-4.5 0-3.53 2.84-7.96 6.92-7.96 2.2 0 4.05 1.26 4.05 4.24m-2.23-.85c0-1.06-.4-2.58-1.85-2.58-2.26 0-4.66 4.1-4.66 7.86 0 .9.1 2.95 1.64 2.95 2.92 0 4.88-6.15 4.88-8.24M863.04 43.75l-2.45 9.6c-.04.1-.04.16-.04.25 0 .22.1.38.4.38.56 0 1.1-.72 1.56-1.27l.13-.15.36.3c-.62.9-2.03 2.95-3.63 2.95-.8 0-1.1-.52-1.1-1.43 0-.25.03-.7.1-1.02l.73-2.62h-.03c-.2.14-2.67 3.47-3.78 4.3-.64.47-1.36.77-2 .77-1.3 0-1.67-1-1.67-2.04 0-.58.08-1.1.22-1.63l1.62-6.36c.1-.42.17-.58.17-.7 0-.32-.3-.63-.9-.63-.2 0-.53.03-.73.1l-.07-.43 4.33-.7-2.32 8.98c-.05.25-.08.44-.08.66 0 .58.22.94.72.94.7 0 1.8-.85 2.75-2.12 1.2-1.57 2.46-4.03 3-6.04l.6-2.07h2.1M871.67 43.48l-.28 1.05h-1.94l-2.15 8.82c0 .08-.04.22-.04.3 0 .17.08.33.44.33 0 0 .63-.05 1.65-1.43l.36.3c-.65.86-2.03 2.95-3.65 2.95-.86 0-1.08-.7-1.08-1.43 0-.36.06-.72.14-1.02l2.24-8.82h-2.12l.14-.8c2.06-.4 3.75-1.4 4.88-3.8h.35l-.86 3.55h1.93"/></g></svg>